<svg xmlns="http://www.w3.org/2000/svg" viewBox="0 0 430 932" preserveAspectRatio="xMidYMid slice">
  <defs>
    <linearGradient id="bg" x1="0" y1="0" x2="0" y2="1">
      <stop offset="0" stop-color="#fdfef9"/>
      <stop offset=".55" stop-color="#f4faf5"/>
      <stop offset="1" stop-color="#eef7f0"/>
    </linearGradient>
    <linearGradient id="mount" x1="0" y1="0" x2="1" y2="1">
      <stop offset="0" stop-color="#d6e6d7" stop-opacity=".9"/>
      <stop offset="1" stop-color="#b8d2bd" stop-opacity=".55"/>
    </linearGradient>
    <radialGradient id="sun" cx="78%" cy="16%" r="24%">
      <stop offset="0" stop-color="#efe5b1" stop-opacity=".62"/>
      <stop offset="1" stop-color="#efe5b1" stop-opacity="0"/>
    </radialGradient>
  </defs>
  <rect width="430" height="932" fill="url(#bg)"/>
  <rect width="430" height="350" fill="url(#sun)"/>
  <path d="M0 270 C52 224 96 248 138 296 C174 338 219 252 268 296 C312 336 342 240 430 284 L430 932 L0 932Z" fill="url(#mount)" opacity=".58"/>
  <path d="M0 348 C66 314 98 333 151 372 C206 410 251 332 307 365 C359 395 386 354 430 368 L430 932 L0 932Z" fill="#e5f0e5" opacity=".78"/>
  <path d="M0 420 C84 389 135 431 210 416 C291 399 341 426 430 402 L430 932 L0 932Z" fill="#f8fbf3" opacity=".82"/>
</svg>
